<svg xmlns="http://www.w3.org/2000/svg" xmlns:xlink="http://www.w3.org/1999/xlink" width="931" height="842" viewBox="0 0 931 842">
  <defs>
    <linearGradient id="linear-gradient" x1="0.5" y1="1" x2="0.5" gradientUnits="objectBoundingBox">
      <stop offset="0" stop-color="gray" stop-opacity="0.251"/>
      <stop offset="0.54" stop-color="gray" stop-opacity="0.122"/>
      <stop offset="1" stop-color="gray" stop-opacity="0.102"/>
    </linearGradient>
    <linearGradient id="linear-gradient-2" x1="0.5" y1="1" x2="0.5" y2="0" xlink:href="#linear-gradient"/>
    <clipPath id="clip-bgSignup">
      <rect width="931" height="842"/>
    </clipPath>
  </defs>
  <g id="bgSignup" clip-path="url(#clip-bgSignup)">
    <rect width="931" height="842" fill="#f0faf8"/>
    <g id="Group_6" data-name="Group 6" transform="translate(50.51 -80.003)">
      <path id="Path_298" data-name="Path 298" d="M92.37,356.76H193.85V495.09H99.79c-.24,1.43-.48,2.85-.75,4.28h94.81V610.91a1.427,1.427,0,0,1-.47-.18q-4-1.59-8-3.37c-.57-.26-1.13-.53-1.71-.78q-4-1.89-8-4c-.93-.49-1.86-1-2.77-1.52A166.432,166.432,0,0,1,133,570c-.35-.33-.67-.69-1-1-1.62-1.76-3.21-3.54-4.75-5.36-.58-.67-1.14-1.35-1.71-2-1.82-2.22-3.58-4.52-5.28-6.83-.26-.35-.5-.69-.75-1a147.719,147.719,0,0,1-17.2-31.1c-.14-.33-.27-.69-.4-1-1.38-3.5-2.63-7.05-3.71-10.67-.46-1.51-.91-3-1.29-4.57-.14-.45-.25-.91-.37-1.36-5.62-22.15-6.27-45.17-6.27-68.08v-8Q90.39,415,90.6,401q.08-3.6.15-7.23.21-9.19.6-18.42c.06-1.7.14-3.41.23-5.1q.06-1.47.15-2.94Q92,362,92.37,356.76Z" transform="translate(-32.558 -18.56)" fill="#6c63ff" opacity="0.1"/>
      <path id="Path_299" data-name="Path 299" d="M193.85,202.74H138.18A423.747,423.747,0,0,1,167.79,162c8.28-10.16,17-20.06,26.06-29.6Z" transform="translate(-35.248 -18.56)" fill="#6c63ff" opacity="0.1"/>
      <path id="Path_300" data-name="Path 300" d="M193.85,207V352.48H92.69c0-.42.06-.85.1-1.27.09-1.15.18-2.29.28-3.44.1-1.34.23-2.68.36-4s.26-2.92.42-4.37.29-2.92.45-4.37.32-2.9.5-4.34.34-2.9.54-4.34c.15-1.19.3-2.39.47-3.59.23-1.69.47-3.38.72-5.06a4.812,4.812,0,0,1,.12-.76,348.931,348.931,0,0,1,7.44-36.52,270.406,270.406,0,0,1,12.55-37A277.871,277.871,0,0,1,135.52,207Z" transform="translate(-32.701 -18.56)" fill="#6c63ff" opacity="0.1"/>
      <path id="Path_301" data-name="Path 301" d="M218.09,356.76V495.09H419.652V356.76Zm0,142.61v118.8c1.153.25,2.288.5,3.431.71,1.534.32,3.078.61,4.649.86l.93.14c.614.11,1.237.2,1.86.28,1.553.24,3.106.42,4.649.58.725.08,1.479.14,2.213.21l1.795.14h0c.976.08,1.943.14,2.911.18.6,0,1.19.05,1.795.07s.93,0,1.413,0h5.17a23.754,23.754,0,0,0,2.39-.08h.046a13.24,13.24,0,0,0,1.664-.07,3.8,3.8,0,0,0,.474,0,10.423,10.423,0,0,0,1.376-.06,1.811,1.811,0,0,1,.316,0c1.032-.07,2.074-.16,3.124-.26s2.046-.22,3.1-.34l2.111-.28a173.978,173.978,0,0,0,25.525-5.84c18.812-5.64,37.2-13.53,56-19.3,24.289-7.45,51.144-11.12,74.614-2.05V499.37ZM419.652,202.74V18.58a241.756,241.756,0,0,0-65.482,8.25c-51.041,13.79-96.875,43.7-136.079,81.9v94h10.145V207H218.09V352.48H419.652V207H269.736v-4.28Zm258.954-62.21c-12.628-.48-25.181-4.77-36.544-11.42-21.7-12.69-39.055-32.31-58.434-48.85A258.08,258.08,0,0,0,442.2,19.82V202.74H729.917l.716-.81Zm26.213-5,27.794,32.81V126.9c-9.355,1.27-17.5,4.22-27.794,8.59Zm27.794,512.14V499.37H673.343c-.149-.63-.316-1.27-.5-1.91.177.64.335,1.28.493,1.91H442.2V606.61c2.195,1.75,4.361,3.6,6.509,5.46h0q3.478,3.06,6.909,6.19l2.306,2.05c1.107,1,2.232,2,3.348,2.95q3.357,2.91,6.76,5.76,1.7,1.44,3.422,2.83a465.054,465.054,0,0,0,57.318,40.31c4.482,2.69,9.011,5.28,13.567,7.81q4.547,2.52,9.159,4.94,6.918,3.63,13.948,7h0a485.154,485.154,0,0,0,135.763,42.52q15.6,2.47,31.346,3.9V647.65h.93ZM442.2,207V352.48H732.614V207Zm0,149.74V495.09H732.614V356.76ZM755.154,126.7V173l35.466-41.87A347.129,347.129,0,0,0,755.154,126.7Zm0,230.06V495.09h282.453V356.76Zm281.458,301.88.995-159.27H755.154V739.94a473.323,473.323,0,0,0,54.584-.71h.316q13.018-.9,25.916-2.56h.2a450.4,450.4,0,0,0,133.187-38.26M1092.1,379.48q-1.609-4-3.3-8c-2.1-5-4.315-9.86-6.6-14.71h-22.038V495.09h55.709c-.047-39.18-9.271-79.18-23.768-115.61Zm-31.942,119.89v137a195.745,195.745,0,0,0,38.5-55.84c11.484-25.49,16.738-53.07,17.175-81.17Zm0-182.92v36h19.974a398.382,398.382,0,0,0-19.974-36ZM868.6,153.85c-1.469-.61-2.948-1.22-4.426-1.8a381.012,381.012,0,0,0-47.7-15.42l-54.287,64.06h0l-1.06,1.23.7.81H955.033A403.63,403.63,0,0,0,868.6,153.85ZM960.706,207H759.116l-3.961,3.89V352.48h282.453v-68.6a415.4,415.4,0,0,0-76.9-76.88Z" transform="translate(-355.229 -18.56)" fill="#6c63ff" opacity="0.1"/>
      <path id="Path_302" data-name="Path 302" d="M193.85,280.39v72.09H92.69c0-.42.06-.85.1-1.27.09-1.15.18-2.29.28-3.44.1-1.34.23-2.68.36-4s.26-2.92.42-4.37.29-2.92.45-4.37.32-2.9.5-4.34.34-2.9.54-4.34c.15-1.19.3-2.39.47-3.59.23-1.69.47-3.38.72-5.06a4.812,4.812,0,0,1,.12-.76,348.931,348.931,0,0,1,7.44-36.52Z" transform="translate(-32.701 -18.56)" fill="#6c63ff" opacity="0.1"/>
      <path id="Path_303" data-name="Path 303" d="M92.37,356.76H193.85V495.09H99.79c-.24,1.43-.48,2.85-.75,4.28h94.81V610.91a1.427,1.427,0,0,1-.47-.18q-4-1.59-8-3.37c-.57-.26-1.13-.53-1.71-.78q-4-1.89-8-4c-.93-.49-1.86-1-2.77-1.52A166.432,166.432,0,0,1,133,570c-.35-.33-.67-.69-1-1-1.62-1.76-3.21-3.54-4.75-5.36-.58-.67-1.14-1.35-1.71-2-1.82-2.22-3.58-4.52-5.28-6.83-.26-.35-.5-.69-.75-1a147.719,147.719,0,0,1-17.2-31.1c-.14-.33-.27-.69-.4-1-1.38-3.5-2.63-7.05-3.71-10.67-.46-1.51-.91-3-1.29-4.57-.14-.45-.25-.91-.37-1.36-5.62-22.15-6.27-45.17-6.27-68.08v-8Q90.39,415,90.6,401q.08-3.6.15-7.23.21-9.19.6-18.42c.06-1.7.14-3.41.23-5.1q.06-1.47.15-2.94Q92,362,92.37,356.76Z" transform="translate(-32.558 -18.56)" fill="#6c63ff" opacity="0.1"/>
      <path id="Path_304" data-name="Path 304" d="M278.44,209.28V333.92H202.13V209.28h10.88v-42.2h44.66v42.2Z" transform="translate(-107.276)" fill="#6c63ff" opacity="0.1"/>
      <rect id="Rectangle_168" data-name="Rectangle 168" width="76.3" height="138.33" transform="translate(94.855 338.19)" fill="#6c63ff" opacity="0.1"/>
      <path id="Path_305" data-name="Path 305" d="M218.09,499.37h76.3v115a197.636,197.636,0,0,1-27.45,5.83c-.76.11-1.51.2-2.27.28-1.12.13-2.23.25-3.34.35l-3.35.27h-.34l-1.48.08h-.51c-.6,0-1.19.07-1.79.08h-.05c-.86,0-1.71.06-2.57.08h-7.08a15.733,15.733,0,0,1-1.94-.08q-1.54-.06-3.12-.18h0l-1.93-.14c-.8-.06-1.6-.14-2.39-.22q-2.52-.22-5-.57l-2-.28-1-.14c-1.67-.25-3.33-.53-5-.85-1.24-.22-2.46-.47-3.69-.73Z" transform="translate(-123.23 -18.56)" fill="#6c63ff" opacity="0.1"/>
      <rect id="Rectangle_169" data-name="Rectangle 169" width="62.92" height="139.35" transform="translate(353.826 194.56)" fill="#6c63ff" opacity="0.1"/>
      <path id="Path_306" data-name="Path 306" d="M755.46,338.19V476.53H443.15V416.86H609.5v35.2h83.03V338.19Z" transform="translate(-281.511)" fill="#6c63ff" opacity="0.1"/>
      <path id="Path_307" data-name="Path 307" d="M772.4,647.7a5.653,5.653,0,0,1-1-.06v90.75q-16.91-1.39-33.7-3.89A551.327,551.327,0,0,1,591.64,692q-20.13-9.08-39.44-19.79a503.916,503.916,0,0,1-61.63-40.31q-7.38-5.64-14.54-11.53c-3.31-2.74-6.59-5.54-9.93-8.25-2.3-1.87-4.63-3.72-7-5.48V499.37H707.66c-.18-.64-.34-1.27-.52-1.91.19.64.37,1.27.53,1.91h63.74V647.63C771.74,647.64,772.07,647.67,772.4,647.7Z" transform="translate(-297.77 -18.56)" fill="#6c63ff" opacity="0.1"/>
      <path id="Path_308" data-name="Path 308" d="M935.51,202.74h-41V190h18.37V152.05q2.39.88,4.76,1.8V190H935.5Z" transform="translate(-434.955 -18.56)" fill="#6c63ff" opacity="0.1"/>
      <path id="Path_309" data-name="Path 309" d="M1034.3,352.48H833a.13.13,0,0,0,.06,0H795.65V213.13h10.58v103h48.34v-61h39.95V207h41v48.16h39.93v61h58.86Z" transform="translate(-533.833 -18.56)" fill="#6c63ff" opacity="0.1"/>
      <path id="Path_310" data-name="Path 310" d="M795.65,356.76V495.09h238.66V356.76Zm303.41,301.15.34-109.5h-65.09v-49H795.65V739.94a547.312,547.312,0,0,0,58.7-.71h.34q14-.9,27.87-2.56h.21A512.492,512.492,0,0,0,1026,698.41" transform="translate(-537.863 -18.56)" fill="#6c63ff" opacity="0.1"/>
      <path id="Path_311" data-name="Path 311" d="M1127.85,499.37h55.67c-.48,28.09-6.12,55.68-18.47,81.16-10.26,21.17-24.53,39.68-41.4,55.85v-88h4.2Z" transform="translate(-560.552 -18.56)" fill="#6c63ff" opacity="0.1"/>
      <path id="Path_312" data-name="Path 312" d="M1183.56,495.09h-55.71V379.48H1158C1173.59,415.91,1183.51,455.91,1183.56,495.09Z" transform="translate(-560.552 -18.56)" fill="#6c63ff" opacity="0.1"/>
      <rect id="Rectangle_170" data-name="Rectangle 170" width="33.71" height="43.69" transform="translate(377.912 233.3)" fill="#6c63ff" opacity="0.1"/>
      <rect id="Rectangle_171" data-name="Rectangle 171" width="33.71" height="10.06" transform="translate(377.912 323.86)" fill="#6c63ff" opacity="0.1"/>
      <rect id="Rectangle_172" data-name="Rectangle 172" width="33.71" height="29.35" transform="translate(377.912 338.19)" fill="#6c63ff" opacity="0.1"/>
      <rect id="Rectangle_173" data-name="Rectangle 173" width="33.71" height="43.69" transform="translate(377.912 414.42)" fill="#6c63ff" opacity="0.1"/>
      <rect id="Rectangle_174" data-name="Rectangle 174" width="33.71" height="43.69" transform="translate(377.912 504.98)" fill="#6c63ff" opacity="0.1"/>
      <path id="Path_313" data-name="Path 313" d="M771.41,647.63a4.857,4.857,0,0,1,1,.07,5.653,5.653,0,0,1-1-.06v10.15H737.7V614.1h33.71Z" transform="translate(-360.079 -18.56)" fill="#6c63ff" opacity="0.1"/>
      <path id="Path_314" data-name="Path 314" d="M771.41,704.65v33.74Q754.49,737,737.7,734.5V704.65Z" transform="translate(-359.788 -18.56)" fill="#6c63ff" opacity="0.1"/>
      <rect id="Rectangle_175" data-name="Rectangle 175" width="144.47" height="3.21" transform="translate(205.892 473.32)" fill="#6c63ff" opacity="0.1"/>
      <rect id="Rectangle_176" data-name="Rectangle 176" width="144.47" height="12.3" transform="translate(205.892 480.8)" fill="#6c63ff" opacity="0.1"/>
      <rect id="Rectangle_177" data-name="Rectangle 177" width="144.47" height="19.78" transform="translate(205.892 533.42)" fill="#6c63ff" opacity="0.1"/>
      <path id="Path_315" data-name="Path 315" d="M603.57,612.08v19.78h-113q-7.38-5.62-14.54-11.54c-3.32-2.73-6.6-5.53-9.93-8.24Z" transform="translate(-255.208 -18.56)" fill="#6c63ff" opacity="0.1"/>
      <path id="Path_316" data-name="Path 316" d="M603.57,672.17V692H591.64q-20.13-9.08-39.44-19.79Z" transform="translate(-277.861 -18.56)" fill="#6c63ff" opacity="0.1"/>
      <rect id="Rectangle_178" data-name="Rectangle 178" width="28.44" height="28.44" transform="translate(442.339 351.6)" fill="#6c63ff" opacity="0.1"/>
      <rect id="Rectangle_179" data-name="Rectangle 179" width="28.44" height="28.44" transform="translate(110.317 219.09)" fill="#6c63ff" opacity="0.1"/>
      <rect id="Rectangle_180" data-name="Rectangle 180" width="28.44" height="28.44" transform="translate(110.317 285.15)" fill="#6c63ff" opacity="0.1"/>
      <rect id="Rectangle_181" data-name="Rectangle 181" width="28.44" height="28.44" transform="translate(110.317 351.21)" fill="#6c63ff" opacity="0.1"/>
      <rect id="Rectangle_182" data-name="Rectangle 182" width="28.44" height="28.44" transform="translate(110.317 417.26)" fill="#6c63ff" opacity="0.1"/>
      <rect id="Rectangle_183" data-name="Rectangle 183" width="28.44" height="28.44" transform="translate(110.317 483.32)" fill="#6c63ff" opacity="0.1"/>
      <rect id="Rectangle_184" data-name="Rectangle 184" width="28.44" height="28.44" transform="translate(110.317 549.38)" fill="#6c63ff" opacity="0.1"/>
      <rect id="Rectangle_185" data-name="Rectangle 185" width="28.44" height="28.44" transform="translate(426.196 351.6)" fill="#6c63ff" opacity="0.1"/>
      <rect id="Rectangle_186" data-name="Rectangle 186" width="28.44" height="28.44" transform="translate(442.339 421.75)" fill="#6c63ff" opacity="0.1"/>
      <rect id="Rectangle_187" data-name="Rectangle 187" width="28.44" height="28.44" transform="translate(426.196 421.75)" fill="#6c63ff" opacity="0.1"/>
      <rect id="Rectangle_188" data-name="Rectangle 188" width="28.44" height="28.44" transform="translate(442.339 491.89)" fill="#6c63ff" opacity="0.1"/>
      <rect id="Rectangle_189" data-name="Rectangle 189" width="28.44" height="28.44" transform="translate(426.196 491.89)" fill="#6c63ff" opacity="0.1"/>
      <rect id="Rectangle_190" data-name="Rectangle 190" width="28.44" height="28.44" transform="translate(442.339 562.04)" fill="#6c63ff" opacity="0.1"/>
      <rect id="Rectangle_191" data-name="Rectangle 191" width="28.44" height="28.44" transform="translate(426.196 562.04)" fill="#6c63ff" opacity="0.1"/>
      <rect id="Rectangle_192" data-name="Rectangle 192" width="28.44" height="28.44" transform="translate(442.339 632.19)" fill="#6c63ff" opacity="0.1"/>
      <rect id="Rectangle_193" data-name="Rectangle 193" width="28.44" height="28.44" transform="translate(426.196 632.19)" fill="#6c63ff" opacity="0.1"/>
      <path id="Path_317" data-name="Path 317" d="M838.4,720.67V702.33h28.43v15.73Z" transform="translate(-396.058)" fill="#6c63ff" opacity="0.1"/>
      <path id="Path_318" data-name="Path 318" d="M96.53,316.91v16.27h97.32V316.91Zm9.69,15.25h-8V317.94h8Zm9.69,0h-8V317.94h8Zm9.67,0h-8V317.94h8Zm9.69,0h-8V317.94h8Zm9.68,0h-8V317.94h8Zm9.69,0h-8V317.94h8Zm9.69,0h-8V317.94h8Zm9.68,0h-8V317.94h8Zm9.68,0h-8V317.94h8Zm9.69,0h-8V317.94h8Z" transform="translate(-32.927 -18.56)" fill="#6c63ff" opacity="0.1"/>
      <path id="Path_319" data-name="Path 319" d="M96.53,364.27v16.27h97.32V364.27Zm9.69,15.25h-8V365.3h8Zm9.69,0h-8V365.3h8Zm9.67,0h-8V365.3h8Zm9.69,0h-8V365.3h8Zm9.68,0h-8V365.3h8Zm9.69,0h-8V365.3h8Zm9.69,0h-8V365.3h8Zm9.68,0h-8V365.3h8Zm9.68,0h-8V365.3h8Zm9.69,0h-8V365.3h8Z" transform="translate(-32.927 -18.56)" fill="#6c63ff" opacity="0.1"/>
      <path id="Path_320" data-name="Path 320" d="M96.53,411.64V427.9h97.32V411.64Zm9.69,15.23h-8V412.65h8Zm9.69,0h-8V412.65h8Zm9.67,0h-8V412.65h8Zm9.69,0h-8V412.65h8Zm9.68,0h-8V412.65h8Zm9.69,0h-8V412.65h8Zm9.69,0h-8V412.65h8Zm9.68,0h-8V412.65h8Zm9.68,0h-8V412.65h8Zm9.69,0h-8V412.65h8Z" transform="translate(-32.927 -18.56)" fill="#6c63ff" opacity="0.1"/>
      <path id="Path_321" data-name="Path 321" d="M96.53,459v16.26h97.32V459Zm9.69,15.24h-8V460h8Zm9.69,0h-8V460h8Zm9.67,0h-8V460h8Zm9.69,0h-8V460h8Zm9.68,0h-8V460h8Zm9.69,0h-8V460h8Zm9.69,0h-8V460h8Zm9.68,0h-8V460h8Zm9.68,0h-8V460h8Zm9.69,0h-8V460h8Z" transform="translate(-32.927 -18.56)" fill="#6c63ff" opacity="0.1"/>
      <path id="Path_322" data-name="Path 322" d="M97,506.34c.38,1.54.83,3.06,1.29,4.57v-3.54h8v14.21H102c.12.34.25.69.39,1h91.5V506.34Zm19,15.24h-8V507.37h8Zm9.67,0h-8V507.37h8Zm9.69,0h-8V507.37h8Zm9.68,0h-8V507.37h8Zm9.69,0h-8V507.37h8Zm9.69,0h-8V507.37h8Zm9.68,0h-8V507.37h8Zm9.68,0h-8V507.37h8Zm9.69,0h-8V507.37h8Z" transform="translate(-32.955 -18.56)" fill="#6c63ff" opacity="0.1"/>
      <path id="Path_323" data-name="Path 323" d="M119.54,553.7c.26.32.5.68.75,1h5.29v6.83l1.71,2v-8.87h8V569H132c.32.33.63.68,1,1h60.83V553.7ZM145,569h-8V554.72h8Zm9.69,0h-8V554.72h8Zm9.69,0h-8V554.72h8Zm9.68,0h-8V554.72h8Zm9.68,0h-8V554.72h8Zm9.69,0h-8V554.72h8Z" transform="translate(-34.236 -18.56)" fill="#6c63ff" opacity="0.1"/>
      <path id="Path_324" data-name="Path 324" d="M172.93,601.06c.92.52,1.85,1,2.78,1.51v-.5h8v4.51c.58.25,1.13.52,1.7.78v-5.29h8v8.66a3.262,3.262,0,0,0,.47.17v-9.84Z" transform="translate(-37.03 -18.56)" fill="#6c63ff" opacity="0.1"/>
      <path id="Path_325" data-name="Path 325" d="M833,352.48ZM771.4,647.63ZM707.13,497.46c.19.64.36,1.28.53,1.91h0C707.51,498.74,707.33,498.1,707.13,497.46ZM833,352.48ZM229,202.74V207h44.67v-4.28ZM771.41,647.63ZM707.13,497.46c.19.64.36,1.28.53,1.91h0C707.51,498.74,707.33,498.1,707.13,497.46ZM833,352.48ZM771.4,647.63ZM707.13,497.46c.19.64.36,1.28.53,1.91h0C707.51,498.74,707.33,498.1,707.13,497.46Z" transform="translate(-227.836 -18.56)" fill="#6c63ff" opacity="0.1"/>
      <ellipse id="Ellipse_9" data-name="Ellipse 9" cx="97.44" cy="15.65" rx="97.44" ry="15.65" transform="translate(351.578 831.57)" fill="#6c63ff" opacity="0.1"/>
      <ellipse id="Ellipse_10" data-name="Ellipse 10" cx="97.44" cy="15.65" rx="97.44" ry="15.65" transform="translate(147.352 815.92)" fill="#6c63ff" opacity="0.1"/>
      <path id="Path_326" data-name="Path 326" d="M568.1,436.31a.53.53,0,0,0-.15-.26c-1.49-1.47-20.49-28.34-20.49-28.34s-1-3-2.62-6.9a6.859,6.859,0,0,0,1.15-2.25,7.726,7.726,0,0,0,.19-1.05c0-.11.08-.2.11-.31a7.59,7.59,0,0,0-.1-4.12,7.129,7.129,0,0,1-.41,1,16.72,16.72,0,0,0-1.5-3.34c-2.52-4.34-6.12-8-8.77-12.23A33.09,33.09,0,0,1,531,356.55c0,.39,0,.79,0,1.18a34.231,34.231,0,0,1,.6-4.5,31.222,31.222,0,0,1,1.67-4.94c2.38-5.45,6.23-10.2,8.57-15.67a29.7,29.7,0,0,0,1.78-5.73,32.1,32.1,0,0,0,.89-10.05,16,16,0,0,1-.25,2.39,32.55,32.55,0,0,0-9.19-21.67c-8.17-8.21-19.9-11.4-31.12-13.08a28.51,28.51,0,0,1-13.1-5c-4.31-2.79-9.88-3.46-14.92-2.85a24.61,24.61,0,0,0-15.19,7.51c-5.33,5.86-7.64,14.16-13.86,19.1-3.77,3-8.55,4.4-12.94,6.44s-8.54,5-9.95,9.38v.16l-.06.16c-1.46,5.18,1.36,10.45,2.83,15.62,1.53,5.35,1.63,11,1.71,16.53.11,6.76.21,13.53.1,20.3-.05,2.66-.14,5.35-.34,8a41.917,41.917,0,0,0-6.87,2.76c-2.24,1.46-10.62,10.51-10.62,10.51l-16.39,62.62.22.25-.22.85.83-.19c2.32,2.5,9.25,9.62,16.73,14.06l.7,12.28s.84,12.32,12.17,17.41c.26,4.27,1.07,21.61-2.68,28.48a32,32,0,0,0-3.54,16.28s1.31,10.42-.18,15.9a26,26,0,0,0-.19,11.16h0v3.29c0,11.09.13,46.63,0,50.65-.19,4.75,0,75,0,75s-.93,35.11-3.91,44.62-2.23,41-2.23,41-1.87,37.51,4.74,44.91c0,.33-.06.67-.07,1v.47c-.08,2.85.47,5.88,2.92,6.81,5,1.92,11.61,7.68,12.86,9.33s8.52,5.76,18,4.66a135.515,135.515,0,0,1,17.89-.82h0s3.74-.68,2.53-5.33h0c-.78-2.9-3.7-7.36-5.78-10.29.38.1.75.18,1.1.25l.36.07h.28a3.8,3.8,0,0,0,.46,0h.2a3.424,3.424,0,0,0,.56,0h0c2.51-.24,11.87,4.12,13.54,7s7.56,5.07,12,5.62c2.64.32,9.3-.22,14.89-.94a54.82,54.82,0,0,0,8.34-1.52c1.32-.5,1.6-2.1,1.22-3.9h0a10.15,10.15,0,0,0-3.46-5.84c-1.62-1.15-3.76-4.18-5.34-6.66l-.42-.67c2.79-2.66,7.83-11.36,9.36-13.16,1.86-2.19-3-82.28-3-82.28V695.32l7.45-38,5.21-20.11,4.47-30.36s7.82-35.46,5.41-38.94h0c0-.07-2-36.58-4.1-45.35-.91-3.91-.68-12.71-.14-21.27a4.2,4.2,0,0,0,1-4.38,9.1,9.1,0,0,0-.58-1.49v-.46a68.86,68.86,0,0,1,13.47-4.58c7.45-1.46,5.59-5.3,5.59-5.3s1.68-3.29,2.79-5.3.19-19.75,0-21.21c-.07-.59-.53-3.85-1.06-7.55,2.39-1.7,5.5-3.81,8.89-5.81C570.08,441.39,568.63,437.36,568.1,436.31ZM470.9,689.84s-5.59,14.26-3.35,17.91-.37,17.2-.37,17.2l-1.87,20.11s-5.21,37.3-3.35,46.07c1.46,6.88,2,27.43,2.17,36h0a2.524,2.524,0,0,0-.37.18l-.25.13c.86-3.37.5-10.19-3.77-23.91l-.36-56.67s-.66-65.46,4.51-72.78,7-19.75,7-19.75-1.12,17.93-1.85,22.68S470.9,689.84,470.9,689.84ZM460.49,830.7c-.05.12-.11.24-.15.35l-.28-.36a2.94,2.94,0,0,0,.43.01Z" transform="translate(-226.054 -18.56)" fill="url(#linear-gradient)"/>
      <path id="Path_327" data-name="Path 327" d="M517.5,853.16c-2.89,1.11-18.56,3-22.94,2.47s-10.18-2.75-11.83-5.65-10.9-7.28-13.38-7a9,9,0,0,1-3-.42,36.927,36.927,0,0,1-5-1.92,9.281,9.281,0,0,1,.11-3.8,6.091,6.091,0,0,1,.22-.74,6.61,6.61,0,0,1,3.36-3.74l.36-.17a10.175,10.175,0,0,1,2.16-.66c7.86-1.51,40.29,1.52,40.29,1.52s.91,1.63,2.16,3.65c1.56,2.5,3.68,5.55,5.28,6.7a10.25,10.25,0,0,1,3.41,5.88C519.08,851.05,518.8,852.67,517.5,853.16Z" transform="translate(-236.305 -18.56)" fill="#fff"/>
      <path id="Path_328" data-name="Path 328" d="M517.5,853.16c-2.89,1.11-18.55,3-22.93,2.47s-10.18-2.76-11.84-5.65-10.89-7.28-13.37-7-8-2.34-8-2.34-.86-4,1.64-6.73l5,3.55s13.38,4.15,15.86,8,7,6,13.53,6.39c4.88.32,16.09-1.58,21.34-2.53C519.08,851.05,518.81,852.67,517.5,853.16Z" transform="translate(-236.311 -18.56)" opacity="0.1"/>
      <path id="Path_329" data-name="Path 329" d="M469.63,858.26a133.133,133.133,0,0,0-17.66.83c-9.39,1.1-16.56-3-17.81-4.69s-7.72-7.4-12.69-9.4c-2.43-.94-3-4-2.89-6.86v-.47a28,28,0,0,1,.8-5.37l38.91-.83,3.37,4.57.52.7,2.05,2.79s.93,1.22,2.15,3c2.06,3,4.94,7.43,5.71,10.36h0C473.32,857.58,469.63,858.26,469.63,858.26Z" transform="translate(-215.491 -18.56)" fill="#fff"/>
      <path id="Path_330" data-name="Path 330" d="M469.63,858.26a133.133,133.133,0,0,0-17.66.83c-9.38,1.1-16.56-3-17.8-4.69s-7.73-7.45-12.7-9.38c-2.43-.94-3-4-2.89-6.86,2.78.65,8.62,2.31,10.91,5.2,3,3.86,8.37,10.35,16,10.76,6.16.33,21.16-.77,26.66-1.21C473.33,857.58,469.63,858.26,469.63,858.26Z" transform="translate(-215.498 -18.56)" opacity="0.1"/>
      <path id="Path_331" data-name="Path 331" d="M465,832.32c-.45,3.34-1.84,4.24-2.84,4.44a1.93,1.93,0,0,1-.74,0,2.461,2.461,0,0,1-.39-.06s-34.94,7.72-42,1.47a4.9,4.9,0,0,1-.5-.52,28,28,0,0,1,.8-5.37l38.91-.83,3.37,4.57a6.61,6.61,0,0,1,3.36-3.74Z" transform="translate(-214.217 -18.56)" opacity="0.1"/>
      <path id="Path_332" data-name="Path 332" d="M510,836.66c-.78.86-1.43,1.35-1.84,1.18-1.84-.74-16.92-3.31-21.71-1.1s-21,.36-21,.36,0-1.92-.09-5a10.174,10.174,0,0,1,2.16-.66c7.86-1.51,40.29,1.52,40.29,1.52S508.76,834.64,510,836.66Z" transform="translate(-235.781 -18.56)" opacity="0.1"/>
      <path id="Path_333" data-name="Path 333" d="M532.82,610.46,528.4,641l-5.14,20.24L515.9,699.5V740s4.78,80.58,2.94,82.78-8.83,14.73-10.67,14-16.92-3.31-21.71-1.11-21,.37-21,.37-.37-31.27-2.21-40.1,3.31-46.36,3.31-46.36l1.84-20.23s2.58-13.62.37-17.3,3.31-18,3.31-18-2.57-8.11-1.83-12.89,1.83-22.81,1.83-22.81-1.83,12.52-6.94,19.87-4.46,73.22-4.46,73.22l.36,57c9.21,30.18,0,27.23,0,27.23s-34.94,7.73-42,1.47S414,791.48,414,791.48s-.73-31.64,2.21-41.2,3.87-44.89,3.87-44.89-.19-70.65,0-75.42c.14-4,0-39.81,0-51v-3.31l4.22-10.48,50-6.26h23.92s36,8.46,39.72,12.11a.831.831,0,0,1,.2.22C540.55,574.78,532.82,610.46,532.82,610.46Z" transform="translate(-226.18 -18.56)" fill="#2cd889"/>
      <path id="Path_334" data-name="Path 334" d="M472.11,770.88s11,26.49,16.19,28.33S472.11,770.88,472.11,770.88Z" transform="translate(-233.758 -18.56)" opacity="0.1"/>
      <path id="Path_335" data-name="Path 335" d="M476.18,809.88s37.14,1.84,36.77,5.89S476.18,809.88,476.18,809.88Z" transform="translate(-239.325 -18.56)" opacity="0.1"/>
      <path id="Path_336" data-name="Path 336" d="M426.49,799.29c1.47,1.39,28.33,4,26.12,6.54s-23.91,7.48-23.91,7.48Z" transform="translate(-214.479 -18.56)" opacity="0.1"/>
      <path id="Path_337" data-name="Path 337" d="M422.08,753.59c0,1.1,5.52,35.32,7,36.79s13.61,2.94,13.61,2.94Z" transform="translate(-211.516 -18.56)" opacity="0.1"/>
      <path id="Path_338" data-name="Path 338" d="M462.13,285.85c-5.27,5.89-7.55,14.24-13.69,19.22-3.73,3-8.45,4.43-12.79,6.47s-8.64,5.15-9.93,9.77c-1.44,5.2,1.34,10.51,2.8,15.71,1.51,5.38,1.6,11,1.69,16.63.1,6.81.21,13.62.09,20.43-.18,10.61-1.06,21.71-6.69,30.7,20.33,6.47,41.95,7.35,63.27,8.18a63.841,63.841,0,0,0,12.29-.31A105.479,105.479,0,0,0,509.64,410a80.278,80.278,0,0,1,20.86-2.67c3.07,0,6.2.19,9.16-.61s5.81-2.85,6.61-5.81c.71-2.66-.33-5.49-1.69-7.88-2.48-4.36-6-8-8.66-12.3a33.8,33.8,0,0,1-2.17-30.39c2.36-5.49,6.16-10.27,8.48-15.77a33.26,33.26,0,0,0-6.7-35.28c-8.07-8.26-19.65-11.46-30.73-13.16a27.91,27.91,0,0,1-12.94-5c-4.25-2.8-9.76-3.48-14.74-2.86a24.06,24.06,0,0,0-14.99,7.58Z" transform="translate(-230.737 -18.56)" fill="#3f3d56"/>
      <g id="Group_3" data-name="Group 3" transform="translate(193.092 300.15)" opacity="0.1">
        <path id="Path_339" data-name="Path 339" d="M534.06,344.57a33.27,33.27,0,0,0-2.55,15.27A32.7,32.7,0,0,1,534.06,349c2.35-5.49,6.15-10.27,8.47-15.77a31.909,31.909,0,0,0,2.33-14.52,31.1,31.1,0,0,1-2.33,10.1C540.21,334.31,536.41,339.08,534.06,344.57Z" transform="translate(-424.01 -318.71)"/>
        <path id="Path_340" data-name="Path 340" d="M430.51,352.29c.06,3.92.12,7.85.13,11.77q0-8.1-.13-16.18c-.08-5.59-.18-11.25-1.69-16.64-1-3.42-2.48-6.89-3-10.34-.89,4.9,1.64,9.87,3,14.76C430.33,341,430.43,346.7,430.51,352.29Z" transform="translate(-424.01 -318.71)"/>
        <path id="Path_341" data-name="Path 341" d="M540,401c-3,.81-6.08.63-9.15.61A80.221,80.221,0,0,0,510,404.23a106.192,106.192,0,0,1-10.47,2.64,63.174,63.174,0,0,1-12.3.32c-20.6-.81-41.49-1.68-61.22-7.57a33.938,33.938,0,0,1-2,3.8c20.33,6.46,41.95,7.35,63.26,8.18a63.173,63.173,0,0,0,12.3-.32A103.413,103.413,0,0,0,510,408.65,80.222,80.222,0,0,1,530.81,406c3.07,0,6.19.19,9.15-.62s5.81-2.84,6.61-5.8a7.939,7.939,0,0,0-.1-4.16C545.58,398.22,542.83,400.17,540,401Z" transform="translate(-424.01 -318.71)"/>
      </g>
      <path id="Path_342" data-name="Path 342" d="M510.38,389.15c-.74,1.66-3.86,16-4.6,17.47s-4.78,25-5.15,26.32S474,427.42,474,427.42l-15.81-13.25L441.94,398s-.48-14.59,11.49-19.27a18.265,18.265,0,0,1,2.5-.78c14.52-3.49,13.06-47.64,13.06-47.64l29.8,12.87s-5.52,25.76-5.33,30.73c.05,1.67,1.36,2.71,3.07,3.34a24.271,24.271,0,0,0,8.14.88S511.12,387.5,510.38,389.15Z" transform="translate(-229.217 -18.56)" fill="#fbbebe"/>
      <path id="Path_343" data-name="Path 343" d="M563.73,437.53l4.23,1.11s3.13,4.76-4.23,9.19a127.491,127.491,0,0,0-13.43,9.39l-21.75,6.62-4.19-13.15,20.24-15.36Z" transform="translate(-263.262 -18.56)" fill="#6c63ff"/>
      <path id="Path_344" data-name="Path 344" d="M563.73,437.53l4.23,1.11s3.13,4.76-4.23,9.19a127.491,127.491,0,0,0-13.43,9.39l-21.75,6.62-4.19-13.15,20.24-15.36Z" transform="translate(-263.262 -18.56)" opacity="0.1"/>
      <path id="Path_345" data-name="Path 345" d="M405,450.23l-8.46,8.28s15.26,17.66,27,18.76,19.31-13.43,19.31-13.43l-10.16-16Z" transform="translate(-203.902 -18.56)" fill="#6c63ff"/>
      <path id="Path_346" data-name="Path 346" d="M405,450.23l-8.46,8.28s15.26,17.66,27,18.76,19.31-13.43,19.31-13.43l-10.16-16Z" transform="translate(-203.902 -18.56)" opacity="0.1"/>
      <circle id="Ellipse_11" data-name="Ellipse 11" cx="29.43" cy="29.43" r="29.43" transform="translate(221.887 281.74)" opacity="0.1"/>
      <circle id="Ellipse_12" data-name="Ellipse 12" cx="29.43" cy="29.43" r="29.43" transform="translate(221.887 279.53)" fill="#fbbebe"/>
      <path id="Path_347" data-name="Path 347" d="M538.16,574.59A95,95,0,0,0,518.47,579c-11,3.66-97.2.06-98.4,0v-3.31l4.22-10.48,50-6.26h23.92s36,8.46,39.72,12.11C538.08,573.26,538.16,574.59,538.16,574.59Z" transform="translate(-228.028 -18.56)" opacity="0.1"/>
      <path id="Path_348" data-name="Path 348" d="M510.38,389.15c-.74,1.66-3.86,16-4.6,17.47s-4.78,25-5.15,26.32S474,427.42,474,427.42l-15.81-13.25L441.94,398s-.48-14.59,11.49-19.27l29.72,34.17,13.38-35.65a24.27,24.27,0,0,0,8.14.88S511.12,387.5,510.38,389.15Z" transform="translate(-229.217 -18.56)" opacity="0.1"/>
      <path id="Path_349" data-name="Path 349" d="M483.15,414l-30.42-35a12.75,12.75,0,0,0-12.07-.89c-6.81,2.95-15.27,5.34-17.48,6.81s-10.49,10.57-10.49,10.57L437.35,460l-10.86,42.49s1.66,21.71-2.57,29.62a32.51,32.51,0,0,0-3.5,16.37s1.29,10.49-.18,16a26.65,26.65,0,0,0-.19,11.22s87.39,3.68,98.42,0a94.178,94.178,0,0,1,19.69-4.41s-2-36.8-4-45.63,1.66-42.49,1.66-42.49l-2.39-36.06,14.34-37S540,386.39,531.9,384c0,0-14.71-3.5-17.84-5.15s-12.33-3.13-12.33-3.13l-4.83,1.62Z" transform="translate(-227.653 -18.56)" fill="#2cd889"/>
      <rect id="Rectangle_194" data-name="Rectangle 194" width="70.04" height="107.18" rx="2.94" transform="translate(223.265 422.781) rotate(3.89)" opacity="0.1"/>
      <rect id="Rectangle_195" data-name="Rectangle 195" width="70.04" height="107.18" rx="2.94" transform="translate(224.41 420.586) rotate(3.89)" fill="#3f3d56"/>
      <rect id="Rectangle_196" data-name="Rectangle 196" width="61.02" height="92.22" transform="translate(227.934 428.921) rotate(3.89)" fill="#fff"/>
      <rect id="Rectangle_197" data-name="Rectangle 197" width="49.852" height="13.894" transform="translate(231.607 453.063) rotate(4.004)" opacity="0.1"/>
      <rect id="Rectangle_198" data-name="Rectangle 198" width="7.91" height="7.24" transform="translate(261.153 511.088) rotate(3.89)" opacity="0.1"/>
      <rect id="Rectangle_199" data-name="Rectangle 199" width="40.49" height="7.24" transform="translate(233.126 491.445) rotate(3.89)" opacity="0.1"/>
      <rect id="Rectangle_200" data-name="Rectangle 200" width="42.16" height="11.13" transform="translate(236 426.761) rotate(3.89)" fill="#3f3d56"/>
      <rect id="Rectangle_201" data-name="Rectangle 201" width="42.16" height="11.13" transform="translate(236 426.761) rotate(3.89)" opacity="0.1"/>
      <path id="Path_350" data-name="Path 350" d="M486.83,572.56s-.37,54.46-14.72,85.73c0,0,17.3-41.21,17.3-42.86s9.56-18.95,7-24.1S486.83,572.56,486.83,572.56Z" transform="translate(-235.182 -18.56)" opacity="0.1"/>
      <path id="Path_351" data-name="Path 351" d="M487.61,320.16a20.47,20.47,0,0,1,3.33-13.71A16.89,16.89,0,0,0,504,324.25a2.21,2.21,0,0,1-.63-2.42c2.05,2.32,3.62,5.07,5.94,7.11s5.8,3.26,8.53,1.81c3.71-2,3.75-7.27,2.79-11.37a53.4,53.4,0,0,0-12.29-23.47,16.26,16.26,0,0,0-12.9-6.56c-5.68-.44-11.58.06-16.67,2.61a44.3,44.3,0,0,0-8,5.59l-14,11.42a13.29,13.29,0,0,0-3.4,3.58,9.8,9.8,0,0,0-1.06,3.75,20.21,20.21,0,0,0,9.42,19.07,14.91,14.91,0,0,1,8.93-14,3.88,3.88,0,0,1,1.39,2.89L475,319a5.79,5.79,0,0,1,2-2.37c1.82-1,4.09.18,5.64,1.59s3.06,3.17,5.14,3.39l.08-7.83" transform="translate(-234.203 -18.56)" opacity="0.1"/>
      <path id="Path_352" data-name="Path 352" d="M487.61,319.06a20.48,20.48,0,0,1,3.33-13.72c-.9,8,5.13,16.26,13.07,17.8a2.19,2.19,0,0,1-.63-2.41c2.05,2.32,3.62,5.06,5.94,7.11s5.8,3.26,8.53,1.8c3.71-2,3.75-7.27,2.79-11.36a53.4,53.4,0,0,0-12.29-23.47,19.669,19.669,0,0,0-6.87-5.34,20,20,0,0,0-6-1.22c-5.68-.44-11.58.05-16.67,2.6a44.86,44.86,0,0,0-8,5.6l-14,11.42a13.151,13.151,0,0,0-3.4,3.58,9.749,9.749,0,0,0-1.06,3.75,20.2,20.2,0,0,0,9.42,19.06,14.93,14.93,0,0,1,8.93-14,3.91,3.91,0,0,1,1.39,2.89l2.94-5.24a5.73,5.73,0,0,1,2-2.37c1.82-1,4.09.18,5.64,1.59s3.06,3.16,5.14,3.39l.08-7.84" transform="translate(-234.216 -18.56)" fill="#3f3d56"/>
      <path id="Path_353" data-name="Path 353" d="M501.55,504.69c-2.57-1.3-45.07,5.33-45.07,5.33s-7-2-23.92-4.78-18-19.32-18-19.32l-1.85-33.11,5.71-5,24.46,16s.38,8.09,0,9.55c-.24,1-.88,2.19-.82,3a1,1,0,0,0,.82.9c1.66.42,24.28,4.08,24.28,4.08s52.43-3.59,65.5,14.07a13.278,13.278,0,0,1,2.31,4.36C538.21,511.84,503.88,505.84,501.55,504.69Z" transform="translate(-227.204 -20.56)" fill="#fbbebe"/>
      <path id="Path_354" data-name="Path 354" d="M535,499.84c-2,.89-3.24,1.53-3.24,1.53s-18.76-.55-29.3-4.37-23.35-3.14-23.35-3.14S435.19,486.3,442,476.43a1,1,0,0,0,.82.9c1.66.42,24.28,4.08,24.28,4.08s52.43-3.59,65.5,14.07a13.278,13.278,0,0,1,2.4,4.36Z" transform="translate(-233.726 -18.56)" opacity="0.1"/>
      <path id="Path_355" data-name="Path 355" d="M553.24,441.58s2.58,18.21,2.76,19.69,1.11,19.31,0,21.34-2.76,5.33-2.76,5.33,1.84,3.86-5.52,5.34-16,5.88-16,5.88-18.77-.55-29.25-4.41-23.36-3.13-23.36-3.13-55.75-9.57-31.83-21.25,40.84,4.14,40.84,4.14l26.67-1.65s9.94-6.08,12.7-5.52a10.21,10.21,0,0,0,5.7-.92l.19-19.32Z" transform="translate(-226.027 -17.56)" fill="#fbbebe"/>
      <path id="Path_356" data-name="Path 356" d="M418,396.88l-5.34-.28-16.18,63s17.47-4.42,25,0,21.34,5.33,21.34,5.33l-5.15-50.22Z" transform="translate(-223.879 -17.56)" opacity="0.1"/>
      <path id="Path_357" data-name="Path 357" d="M418,395.77l-5.34-.28-16.18,63s17.47-4.42,25,0,21.34,5.33,21.34,5.33l-5.15-50.22Z" transform="translate(-227.879 -17.56)" fill="#2cd889"/>
      <path id="Path_358" data-name="Path 358" d="M540.37,409.57l7.35,1.66s18.77,27,20.24,28.51-7,7-10.49,7-20.6,2-25.57,6.62S529,434.73,529,434.2s6.17-15.2,6.17-15.2Z" transform="translate(-232.227 -19.56)" opacity="0.1"/>
      <path id="Path_359" data-name="Path 359" d="M540.37,408.47l7.35,1.65s18.77,27.05,20.24,28.52-7,7-10.49,7-20.6,2-25.57,6.62S529,433.63,529,433.1s6.21-15.25,6.21-15.25Z" transform="translate(-228.227 -21.56)" fill="#2cd889"/>
      <g id="Group_4" data-name="Group 4" transform="translate(218.042 284.57)" opacity="0.1">
        <path id="Path_360" data-name="Path 360" d="M490.89,305.43a14.747,14.747,0,0,1,.05-2.3,20.47,20.47,0,0,0-3.08,7.55v2.79c0,1.62,0,3.25-.05,4.87h-.14v.75a3.988,3.988,0,0,0-.05-.77c-2-.32-3.43-2-4.92-3.34s-3.82-2.62-5.64-1.59a5.73,5.73,0,0,0-2,2.37L472.09,321a3.87,3.87,0,0,0-1.39-2.88,14.91,14.91,0,0,0-8.93,14,20.32,20.32,0,0,1-9.49-15.93,20.22,20.22,0,0,0,9.49,18.13,14.93,14.93,0,0,1,8.93-14,3.91,3.91,0,0,1,1.39,2.89l2.94-5.24a5.73,5.73,0,0,1,2-2.37c1.82-1,4.09.18,5.64,1.59s3.06,3.16,5.14,3.39q0-3.84.08-7.66a20.369,20.369,0,0,1,3-7.49Z" transform="translate(-452.256 -303.13)"/>
        <path id="Path_361" data-name="Path 361" d="M487.51,315.5c.05-.68.13-1.36.23-2l.11-2.76a20.237,20.237,0,0,0-.34,4.76Z" transform="translate(-452.256 -303.13)"/>
        <path id="Path_362" data-name="Path 362" d="M517.85,327.43c-2.73,1.46-6.21.24-8.53-1.8s-3.89-4.79-5.94-7.11a2.21,2.21,0,0,0,.63,2.42,2.358,2.358,0,0,1-.58-.15c2,2.3,3.59,5,5.89,7s5.8,3.26,8.53,1.8,3.51-4.88,3.27-8.21C520.94,324,520,326.27,517.85,327.43Z" transform="translate(-452.256 -303.13)"/>
        <path id="Path_363" data-name="Path 363" d="M503.37,320.77a17,17,0,0,1-12.46-14.86c-.57,7.85,5.35,15.72,13.1,17.23A2.2,2.2,0,0,1,503.37,320.77Z" transform="translate(-452.256 -303.13)"/>
      </g>
      <path id="Path_364" data-name="Path 364" d="M983.61,484.21s-3.94-.55-3.94-6.28-2.82-16.46-2.82-16.46h0s-2.44-18.67-5.81-21.63-7.7-20.34-7.7-20.34-.74-9.43-2.25-11.46-3.55-7-6.56-14.09S939,382,939,382s-22.69-13.16-29.12-17.45h0a9.936,9.936,0,0,1-1.64-1.24c-1.12-1.46-6-1.49-6-1.49a98.808,98.808,0,0,1-1.16-10.28v-1.08a34.6,34.6,0,0,0,15.21-18.82c.12-.38.22-.77.33-1.16a3.25,3.25,0,0,0,2-1.76c.57-1.29.59-2.79,1.31-4,.84-1.42,2.44-2.18,3.7-3.24,3.18-2.71,4-7.26,3.85-11.39-.1-3.36-.64-6.74-.43-10.07a3.961,3.961,0,0,1,.06-.84c.06-.49.13-1,.22-1.48.49-2.48,1.56-4.82,2.16-7.28s.66-5.23-.74-7.35c-2.05-3.11-6.32-3.73-10.07-4-4.25-.36-8,.1-10.77-3.43a37.709,37.709,0,0,0-4.28-5.16c-.56-.52-6-3.85-6-4.06a24.31,24.31,0,0,0-17-1.31c-2.83.82-5.48,2.16-8.35,2.83-6.16,1.46-13.26-.12-18.5,3.41-2.92,2-4.67,5.19-6.31,8.28q-2,3.82-4.06,7.65c-2.22,4.19-4.46,8.45-5.39,13.09a22.173,22.173,0,0,0-.37,3.07h0v1.59a5.487,5.487,0,0,0,.06,1,5.727,5.727,0,0,0,.07.62c.07.21.09.68.15,1s.18.89.3,1.32a2.029,2.029,0,0,0,.18.56c.06.19.22.67.35,1s.14.35.22.52a9.367,9.367,0,0,0,.51,1c.08.13.14.26.22.39a11.335,11.335,0,0,0,.92,1.34c2.13,2.67,5.29,4.37,7.62,6.87v1.12a34.23,34.23,0,0,0,15.68,27.9c0,.38.05.77.07,1.16a57.087,57.087,0,0,1-.11,8.9,4.22,4.22,0,0,0-3.32-1.48,4.76,4.76,0,0,0-1.28.11l-.09-.07h0v.09c-2.2.54-4.91,2.83-7.5,9.34,0,0-7.88,8.88-13.88,8.51s-21.19,9.25-21.19,9.25-14.82,9.61-18,19.41a135.686,135.686,0,0,1-6.39,16.28l-18.37,37.72h0l-3.37,30s1.87,13.31,1.5,15.35,7.69,20.34,7.69,20.34,26.63,46.78,37.51,49.18l.78-.54a6.807,6.807,0,0,0,1.47.54l2.24-1.57a23.409,23.409,0,0,1-.18,5.27c-1.49,4.63.57,34.77,3.19,40.68s1.69,83.41,1.69,83.41l-.37,6.83a2.9,2.9,0,0,0,.09.6l-.09,1.62.27.14a19.328,19.328,0,0,1-.27,6.52c-.94,3-1.32,11.47-1.32,11.47s-7.5,47.88-3.94,57.5,6.57,20.16,6.57,20.16,3.75,12,.18,14-13.68,5.55-11.62,10.54c1.9,4.62,9.11,17,10.18,18.81l-.09,1-1.47,15.93a20,20,0,0,0,1.69,6.08c1.61,3.48,4.73,7.07,10.69,6.68,1-.07,2.15-.18,3.28-.33,10.89-1.47,24.29-6.33,24.29-6.33a9.579,9.579,0,0,1-1.89-1.57h0a5.49,5.49,0,0,1-1.67-4c.16-2.91-5.27-16.72-6.63-20.13l-.31-.76s12.38-12.95,10.32-24.41c0,0-13.7-8-9.19-12.4s12.57-17,12.57-17,.37-47.15,0-54.18a58.4,58.4,0,0,1,.69-14.64c.15-.72.33-1.43.52-2.14a127.747,127.747,0,0,0,18.86,1.43q3.46,0,7-.14,0,1,.09,2.16c.52,11.68,1.49,32.17,2.28,39.78,1.12,10.9,7.31,40.31,7.31,40.31s-11.81,7.57,2.06,26.26c0,0,0,6.76-.92,7.75h0a84.63,84.63,0,0,0-2.37,9.77c-.58,3.51-.82,7.08.12,8.92,2.25,4.42,15.75,4.06,15.75,4.06h0a2.129,2.129,0,0,1,.33-.05,19.27,19.27,0,0,1,14.29,4.3c5.13,4.12,24.59,2.32,35.14,1,4.13-.53,6.89-1,6.89-1a4.049,4.049,0,0,0,.14-1.44h0c-.11-2.59-2.14-8.27-15.9-13.34,0,0-12.94-8.7-12.76-16.28H945.4c.94-.03,1.6-.03,1.6-.03s-5.07-18.49-3-20-4.13-22-4.13-22-3.55-34.4-3.75-36.8a21.143,21.143,0,0,1,.94-6.1l-.94-18.87s-.18-6.27,0-8.31a39.075,39.075,0,0,0-.42-5.29c-.09-.7-.18-1.43-.28-2.15,4.85-1.23,8-2.36,8-2.36l-.56-65.65c4.12-8,4.88-25.56,4.86-38,0-8-.36-13.92-.36-13.92l5.63-9.19s1.3-11-.76-13.41c-.91-1.09-.5-2.22.25-3.15a10.474,10.474,0,0,1,1.25-.88,1.576,1.576,0,0,1-.13-.22,9.933,9.933,0,0,1,1.25-.89s-2-3.1-.21-4.41c1.68,1.14,3.18,2.05,4.32,2.7-.08.73-.16,1.15-.16,1.15l.48-1c1.1.62,1.77,1,1.77,1s8.82-17.57,8.63-20.15,6-13.5,6-13.5.75-5.74,4.13-8.14,2.62-19.79,2.62-19.79.94-9.06,3.19-12.75S983.61,484.21,983.61,484.21ZM814.85,476.5l.17,4.19c-1-1.61-1.72-2.76-1.72-2.76Z" transform="translate(-425.343 -18.56)" fill="url(#linear-gradient-2)"/>
      <path id="Path_365" data-name="Path 365" d="M961.57,559.65l-2.16,9.2S942.11,560,939,548.8s5.21-15.47,5.21-15.47l16.13,6.82Z" transform="translate(-448.81 -18.56)" fill="#fff"/>
      <path id="Path_366" data-name="Path 366" d="M961.57,559.65l-2.16,9.2S942.11,560,939,548.8s5.21-15.47,5.21-15.47l16.13,6.82Z" transform="translate(-448.81 -18.56)" opacity="0.1"/>
      <path id="Path_367" data-name="Path 367" d="M864.48,872.76s-16,5.88-27,6.62c-5.84.39-8.91-3.19-10.49-6.64a20.3,20.3,0,0,1-1.66-6l1.45-15.85.76-8.43,23.37-6.08,3.31,10.13.31.76c1.32,3.39,6.66,17.13,6.5,20a5.49,5.49,0,0,0,1.63,4,9.289,9.289,0,0,0,1.82,1.49Z" transform="translate(-420.128 -17.56)" fill="#fff"/>
      <path id="Path_368" data-name="Path 368" d="M973.72,864.7a4,4,0,0,1-.14,1.44s-34.22,5.7-41.22,0A18.53,18.53,0,0,0,918,861.91s-13.24.36-15.45-4c-.92-1.83-.68-5.38-.11-8.87a85.07,85.07,0,0,1,2.32-9.72l.53-.42,3.15-2.53,36.88-1.09h.28c-.18,7.54,12.51,16.19,12.51,16.19C971.62,856.47,973.61,862.12,973.72,864.7Z" transform="translate(-423.794 -18.56)" fill="#fff"/>
      <path id="Path_369" data-name="Path 369" d="M973.73,864.7a4.12,4.12,0,0,1-.15,1.44s-34.22,5.7-41.21,0A18.53,18.53,0,0,0,918,861.91s-13.25.36-15.46-4c-.91-1.83-.68-5.38-.11-8.88,5.1.51,13.15,1.78,16.31,4.82,4.78,4.6,12.88,9.2,17.84,9.57C940.5,863.66,963.81,864.4,973.73,864.7Z" transform="translate(-449.796 -18.56)" opacity="0.1"/>
      <path id="Path_370" data-name="Path 370" d="M864.48,872.76s-16,5.88-27,6.62c-5.84.39-8.91-3.19-10.49-6.64,4.08,1.37,9.73,2.8,12.7,1.49,3.52-1.57,16-2.57,23-3a9.089,9.089,0,0,0,1.79,1.53Z" transform="translate(-415.354 -14.56)" opacity="0.1"/>
      <path id="Path_371" data-name="Path 371" d="M888.22,398.87c-13.2-5.13-30.18-22.08-25.94-30a17.93,17.93,0,0,0,1.65-6.36,58.047,58.047,0,0,0,.12-9,123.6,123.6,0,0,0-1.77-14.65s41.21.93,38.81,7c-.7,1.79-.82,4.88-.62,8.33s.69,7.38,1.21,10.69c.71,4.53,1.44,8,1.44,8s-2.53,3.53-4,3.72S907.16,406.22,888.22,398.87Z" transform="translate(-419.809 -18.56)" fill="#cf6f80"/>
      <path id="Path_372" data-name="Path 372" d="M854.49,847.22l-.31.34c-12.32-14.9-27.22,3.68-27.22,3.68l-.22-.4.76-8.43,23.37-6.08,3.31,10.13Z" transform="translate(-399.065 -18.56)" opacity="0.1"/>
      <path id="Path_373" data-name="Path 373" d="M945.62,836.33s-9-.18-13.8,4.06-28,.91-27,0a3.46,3.46,0,0,0,.52-1.53l3.15-2.53,36.88-1.09C945.51,835.94,945.62,836.33,945.62,836.33Z" transform="translate(-439.681 -18.56)" opacity="0.1"/>
      <path id="Path_374" data-name="Path 374" d="M869.82,719.32a28.051,28.051,0,0,0-1.52,5.13,58.708,58.708,0,0,0-.69,14.56c.37,7,0,53.91,0,53.91s-7.91,12.51-12.33,16.92,9,12.33,9,12.33c2,11.41-10.12,24.29-10.12,24.29-12.32-14.9-27.22,3.67-27.22,3.67s-8.1-14-10.12-19,7.91-8.45,11.4-10.49-.18-14-.18-14-2.94-10.49-6.44-20.06,3.86-57.2,3.86-57.2.38-8.47,1.29-11.42a19.342,19.342,0,0,0,.27-6.48c-.06-.73-.13-1.33-.18-1.75s-.09-.6-.09-.6l.14-.24,5-9.32S872.22,713.45,869.82,719.32Z" transform="translate(-418.728 -19.56)" fill="#2cd889"/>
      <path id="Path_375" data-name="Path 375" d="M945.62,835.23s-9-.19-13.8,4-28,.92-27,0,.91-7.72.91-7.72c-13.61-18.59-2-26.13-2-26.13s-6.07-29.25-7.17-40.1c-.77-7.57-1.72-28-2.23-39.57-.22-5-.35-8.45-.35-8.45L905,715.07l1.43-.28,26.82-5.39s.74,5,1.24,9.09a39.943,39.943,0,0,1,.41,5.27c-.17,2,0,8.27,0,8.27l.92,18.76a21.639,21.639,0,0,0-.92,6.07c.19,2.4,3.68,36.61,3.68,36.61s6.07,20.42,4,21.89S945.62,835.23,945.62,835.23Z" transform="translate(-424.539 -18.56)" fill="#2cd889"/>
      <path id="Path_376" data-name="Path 376" d="M901.09,345.89c-.7,1.79-.82,4.88-.62,8.33a34.25,34.25,0,0,1-36.42-.68,123.6,123.6,0,0,0-1.77-14.65S903.49,339.82,901.09,345.89Z" transform="translate(-419.227 -18.56)" opacity="0.1"/>
      <path id="Path_377" data-name="Path 377" d="M917,323.81a34.212,34.212,0,1,1-68.42.82c0-.28,0-.54,0-.82a34.22,34.22,0,1,1,68.44,0Z" transform="translate(-423.085 -18.56)" fill="#cf6f80"/>
      <path id="Path_378" data-name="Path 378" d="M888.22,398.87c-13.2-5.13-30.18-22.08-25.94-30a17.93,17.93,0,0,0,1.65-6.36L882,377.37l11.18,9.17,8.5-21.63c.71,4.53,1.44,8,1.44,8s-2.53,3.53-4,3.72S907.16,406.22,888.22,398.87Z" transform="translate(-419.809 -18.56)" opacity="0.1"/>
      <path id="Path_379" data-name="Path 379" d="M919,445.98l-15.09,253.5-19.68,1.29L833.26,553.78l8.36-174.51,1.77-36.87,22.66,18.61,11.18,9.17,8.75-22.27,16.27,14.18Z" transform="translate(-404.677 4)" fill="#2cd889"/>
      <path id="Path_380" data-name="Path 380" d="M869.82,719.32a28.051,28.051,0,0,0-1.52,5.13A145,145,0,0,1,827,711.56l-.27-.14.09-1.61v-.84l5-9.32S872.22,713.45,869.82,719.32Z" transform="translate(-404.114 -18.56)" opacity="0.1"/>
      <path id="Path_381" data-name="Path 381" d="M905.33,724.49a101.3,101.3,0,0,1-11.06,1.27c-.22-5-.35-8.45-.35-8.45L905,715.07Z" transform="translate(-424.379 -18.56)" opacity="0.1"/>
      <path id="Path_382" data-name="Path 382" d="M934.53,718.49c-7.11,1.85-18.1,3.93-27.92,2.63l-.14-6.33,26.82-5.39S934,714.36,934.53,718.49Z" transform="translate(-435.894 -18.56)" opacity="0.1"/>
      <path id="Path_383" data-name="Path 383" d="M906.43,722.28c-41,7-78.55-13.07-78.55-13.07l.36-6.8s.93-77.09-1.65-83S822,583.57,823.46,579s-5.33-73.57-5.33-73.57l-1.1-28-40.29-16.37,18-37.53a135.615,135.615,0,0,0,6.26-16.2c3.13-9.75,17.66-19.32,17.66-19.32s14.9-9.56,20.79-9.2,13.61-8.46,13.61-8.46c5.7-14.53,10.86-8,10.86-8a12.855,12.855,0,0,1-.28,2.15c-2,15.95,32.34,66.35,32.83,67.25h0l3.31,79.66,3.31,100.81Z" transform="translate(-415.88 -18.56)" fill="#2cd889"/>
      <path id="Path_384" data-name="Path 384" d="M905.33,722.28c-41,7-78.56-13.07-78.56-13.07l.37-6.8s.92-77.09-1.66-83-4.59-35.87-3.12-40.48S817,505.39,817,505.39l-1.11-28-40.28-16.37,18-37.53a137.738,137.738,0,0,0,6.26-16.19c3.13-9.72,17.71-19.3,17.71-19.3s14.9-9.56,20.78-9.2S852,370.35,852,370.35c5.71-14.53,12-8,12-8,0,.7-.6,1-.28,2.15,4.4,15.47,31.24,66.35,31.73,67.25h0l3.31,79.66L902,612.27Z" transform="translate(-421.322 -16.56)" fill="#fff"/>
      <path id="Path_385" data-name="Path 385" d="M894.28,434c-4.41-1.84-27.77-28.51-27.77-28.51v-6.07c-.85-2-5.91-.78-10,.62l1.76-36.87,2,1.66C864.64,380.29,893.8,433.11,894.28,434Z" transform="translate(-416.156 -18.56)" opacity="0.1"/>
      <path id="Path_386" data-name="Path 386" d="M895.39,431.8c-4.42-1.85-27.78-28.51-27.78-28.51v-6.08c-.85-2-5.9-.78-10,.62L859.34,361l2,1.65C865.75,378.09,894.9,430.9,895.39,431.8Z" transform="translate(-421.67 -17.56)" fill="#fff"/>
      <path id="Path_387" data-name="Path 387" d="M827.88,564.8c.55,0,28.51-2.94,28.51-2.94s16.93,33.3,15.82,41.39-3.12,15.27-9.93,14-36.65,1-36.65,1Z" transform="translate(-404.743 -18.56)" opacity="0.1"/>
      <path id="Path_388" data-name="Path 388" d="M826.77,562.59c.56,0,28.52-2.94,28.52-2.94S872.21,593,871.11,601s-3.13,15.27-9.93,14-36.66,1-36.66,1Z" transform="translate(-404.227 -18.56)" fill="#fff"/>
      <path id="Path_389" data-name="Path 389" d="M847.84,547s25.66,13.8,26.21,18-13.06-1.84-16-2.58a38.144,38.144,0,0,0-5.89-.92l-19.61.53Z" transform="translate(-421.271 -14.56)" fill="#cf6f80"/>
      <circle id="Ellipse_13" data-name="Ellipse 13" cx="2.7" cy="2.7" r="2.7" transform="translate(466.361 411.76)" opacity="0.1"/>
      <circle id="Ellipse_14" data-name="Ellipse 14" cx="2.7" cy="2.7" r="2.7" transform="translate(466.361 410.66)" fill="#3f3d56"/>
      <circle id="Ellipse_15" data-name="Ellipse 15" cx="2.7" cy="2.7" r="2.7" transform="translate(469.085 528.64)" opacity="0.1"/>
      <circle id="Ellipse_16" data-name="Ellipse 16" cx="2.7" cy="2.7" r="2.7" transform="translate(469.085 527.53)" fill="#3f3d56"/>
      <circle id="Ellipse_17" data-name="Ellipse 17" cx="2.7" cy="2.7" r="2.7" transform="translate(467.841 470.2)" opacity="0.1"/>
      <circle id="Ellipse_18" data-name="Ellipse 18" cx="2.7" cy="2.7" r="2.7" transform="translate(467.841 469.1)" fill="#3f3d56"/>
      <path id="Path_390" data-name="Path 390" d="M952.05,560.94s1.84,2.76,0,4,.18,4.42.18,4.42-4.59,2.68-2.57,5.11.74,13.34.74,13.34L944.88,597s.33,5.89.35,13.85c0,12.42-.73,29.88-4.77,37.84L941,714s-19.33,7.07-35.51,4.91l-2.4-104.8s3.5-59.43,4.79-70.83a118.651,118.651,0,0,0,.92-17.85s-.55-17.84-2.4-26.11c0,0-2-35.88-2.2-45.81-.09-4.75.16-18.61.44-31.79.31-14.41.66-28,.66-28l-3.65-28.89s3.65-.36,4.75,1.1a10.53,10.53,0,0,0,1.6,1.23h0c6.31,4.26,28.57,17.36,28.57,17.36s12.32,4.9,15.27,11.92,5,12,6.43,14,2.21,11.4,2.21,11.4,4.24,17.3,7.55,20.23,5.69,21.53,5.69,21.53l-29.25,23s-2.57,38.26-3.12,39.74S952.05,560.94,952.05,560.94Z" transform="translate(-420.761 -11.56)" fill="#fff"/>
      <path id="Path_391" data-name="Path 391" d="M953.16,560.94s1.83,2.76,0,4,.17,4.42.17,4.42-4.59,2.68-2.57,5.11.74,13.34.74,13.34L946,597s.33,5.89.36,13.85c0,12.42-.73,29.88-4.77,37.84l.55,65.31s-19.33,7.07-35.51,4.91l-2.39-104.8s3.49-59.43,4.79-70.83a117.564,117.564,0,0,0,.91-17.85s-.55-17.84-2.39-26.11c0,0-2-35.88-2.21-45.81-.09-4.75.16-18.61.44-31.79.31-14.41.66-28,.66-28l-4.82-29.28s4.82,0,5.93,1.49a9.488,9.488,0,0,0,1.6,1.23h0c6.3,4.26,28.56,17.36,28.56,17.36S950,389.42,953,396.44s5,12,6.43,14,2.21,11.4,2.21,11.4,4.24,17.3,7.55,20.23,5.7,21.53,5.7,21.53l-29.25,23s-2.57,38.26-3.13,39.74S953.16,560.94,953.16,560.94Z" transform="translate(-420.202 -10.56)" fill="#fff"/>
      <path id="Path_392" data-name="Path 392" d="M918.13,402.21l2.65,7.7-13.91,14c.31-14.41.66-28,.66-28l-4.82-29.27s4.82,0,5.93,1.49a9.491,9.491,0,0,0,1.6,1.23h0l11.82,34.09Z" transform="translate(-424.114 -20.56)" fill="#2cd889"/>
      <path id="Path_393" data-name="Path 393" d="M917,400l2.65,7.69-13.9,14c.3-14.41.66-28,.66-28l-4.83-29.28s4.83,0,5.93,1.49a10,10,0,0,0,1.6,1.23h0L921,401.25Z" transform="translate(-420.621 -18.56)" fill="#fff"/>
      <path id="Path_394" data-name="Path 394" d="M917,323.81a34.108,34.108,0,0,1-1.68,10.61,1.42,1.42,0,0,1-1.08-.26c-.27-9-4.69-17.46-10.14-24.65a26.109,26.109,0,0,0-5.5-5.7,10.77,10.77,0,0,0-7.46-2.11c-3,.41-5.65,2.45-8.68,2.71-4,.33-7.58-2.44-11.55-2.57a11.32,11.32,0,0,0-8.49,3.94,23.159,23.159,0,0,0-4.55,8.43,49.38,49.38,0,0,0-2.54,14.56c-.05,2.8-.32,6.31-2.92,7.33a14.9,14.9,0,0,0-3.77-11.4l-.06-.07v-.82a34.22,34.22,0,1,1,68.44,0Z" transform="translate(-423.085 -18.56)" opacity="0.1"/>
      <path id="Path_395" data-name="Path 395" d="M897,269.48a23.56,23.56,0,0,0-16.62-1.3c-2.77.82-5.38,2.15-8.19,2.82-6,1.45-13-.12-18.15,3.39-2.86,2-4.58,5.16-6.18,8.24l-4,7.61c-2.18,4.17-4.38,8.41-5.29,13s-.36,9.73,2.55,13.43c2.11,2.68,5.25,4.37,7.55,6.9A15,15,0,0,1,852.43,335c2.6-1,2.86-4.53,2.92-7.33a49.445,49.445,0,0,1,2.54-14.56,23.162,23.162,0,0,1,4.55-8.43,11.33,11.33,0,0,1,8.49-3.95c4,.14,7.59,2.91,11.55,2.57,3-.25,5.66-2.29,8.68-2.7a10.72,10.72,0,0,1,7.46,2.11,25.619,25.619,0,0,1,5.49,5.7c5.46,7.2,9.89,15.62,10.15,24.65,1.13.82,2.76-.26,3.32-1.54s.58-2.78,1.29-4c.82-1.41,2.39-2.17,3.62-3.23,3.12-2.69,3.9-7.22,3.78-11.33s-.92-8.28-.14-12.32c.47-2.47,1.53-4.8,2.11-7.25s.65-5.2-.72-7.31c-2-3.09-6.21-3.71-9.88-4-4.17-.36-7.9.1-10.56-3.41a39.085,39.085,0,0,0-4.2-5.14C902.33,273,897,269.7,897,269.48Z" transform="translate(-425.997 -18.56)" fill="#512e4e"/>
      <path id="Path_396" data-name="Path 396" d="M788.28,480.36l-10.44-19.31-3.31,29.8s1.84,13.24,1.47,15.27,7.54,20.23,7.54,20.23,26.13,46.55,36.8,48.94l36-25.76-9.56-12.14s-3.31-1.29-4.14,0c0,0-17.76-30.54-19.59-32.74s-1.48-6.63-1.48-6.63-2.76-2.94-1.84-5.7S814.45,480,814.45,480l5.7-5.33Z" transform="translate(-424.169 -18.56)" opacity="0.1"/>
      <path id="Path_397" data-name="Path 397" d="M778.39,458.84l-2.76,2.21-3.31,29.8s1.84,13.24,1.47,15.27,7.55,20.23,7.55,20.23,26.12,46.55,36.79,48.94l36.06-25.76-9.57-12.14s-3.31-1.29-4.14,0c0,0-17.75-30.54-19.59-32.74s-1.47-6.63-1.47-6.63-2.76-2.94-1.84-5.7S812.24,480,812.24,480l5.7-5.33Z" transform="translate(-422.123 -16.56)" fill="#fff"/>
      <path id="Path_398" data-name="Path 398" d="M949.66,575.62c2,2.43.74,13.35.74,13.35l-5.52,9.13s.33,5.9.35,13.86l-9.28,2.9a5.52,5.52,0,0,1-7.16-5.44l1.61-51.6,21.65,8.27c-1.84,1.28.18,4.42.18,4.42S947.64,573.19,949.66,575.62Z" transform="translate(-444.507 -18.56)" opacity="0.1"/>
      <path id="Path_399" data-name="Path 399" d="M950.76,574.52c2,2.42.74,13.34.74,13.34L946,597s.33,5.89.36,13.85l-9.45,2.95a5.39,5.39,0,0,1-7-5.31l1.61-51.78L953.16,565c-1.85,1.28.17,4.42.17,4.42S948.74,572.09,950.76,574.52Z" transform="translate(-445.014 -18.56)" fill="#fff"/>
      <path id="Path_400" data-name="Path 400" d="M957.94,549.9s-1.47,9.39-5.15,9.94-5.33,15.19-9,14.68-1.24-13.62-1.11-16.16-4-13.06-.92-15.45,12.88,0,12.88,0Z" transform="translate(-418.717 -17.56)" fill="#cf6f80"/>
      <path id="Path_401" data-name="Path 401" d="M965.72,477.6l6.93-14s2.77,10.67,2.77,16.37,3.86,6.26,3.86,6.26,4.23,5,2,8.65-3.12,12.69-3.12,12.69.73,17.29-2.58,19.68-4.05,8.1-4.05,8.1-6.07,10.85-5.88,13.43-8.46,20.05-8.46,20.05,4.23-21.71-20.42-31.09c0,0-.19-7.36,1.65-9.38s4.71-3,2.91-13.16-.52-22.41-.52-24.86,5.52-17.72,5.52-17.72Z" transform="translate(-422.195 -16.56)" opacity="0.1"/>
      <path id="Path_402" data-name="Path 402" d="M968.8,461.6l6.06,2s2.77,10.67,2.77,16.37,3.86,6.26,3.86,6.26,4.23,5,2,8.65-3.13,12.69-3.13,12.69.74,17.29-2.57,19.68-4,8.1-4,8.1-6.07,10.85-5.88,13.43-8.47,20.05-8.47,20.05,4.23-21.71-20.42-31.09c0,0-.18-7.36,1.66-9.38s4.71-3,2.91-13.16-.52-22.41-.52-24.86,5.52-17.72,5.52-17.72Z" transform="translate(-422.231 -16.56)" fill="#fff"/>
      <path id="Path_403" data-name="Path 403" d="M834.92,824.47s9.66-6.07,16-1.66S834.92,824.47,834.92,824.47Z" transform="translate(-399.399 -18.56)" opacity="0.1"/>
      <path id="Path_404" data-name="Path 404" d="M910,805.7s8.55-1.1,15.73,6.63S910,805.7,910,805.7Z" transform="translate(-433.669 -18.56)" opacity="0.1"/>
      <g id="Group_5" data-name="Group 5" transform="translate(412.165 270.7)" opacity="0.1">
        <path id="Path_405" data-name="Path 405" d="M922.49,322.09c-1.23,1.07-2.81,1.82-3.63,3.23-.7,1.21-.72,2.71-1.28,4s-2.19,2.36-3.33,1.54c-.26-9-4.69-17.45-10.14-24.65a25.572,25.572,0,0,0-5.49-5.69,10.75,10.75,0,0,0-7.47-2.12c-3,.41-5.64,2.45-8.67,2.71-4,.33-7.59-2.44-11.56-2.57a11.28,11.28,0,0,0-8.48,3.94,23.159,23.159,0,0,0-4.55,8.43,49.443,49.443,0,0,0-2.54,14.56c-.06,2.79-.32,6.27-2.9,7.31a13.837,13.837,0,0,1,0,2.23c2.61-1,2.87-4.53,2.93-7.33a49.443,49.443,0,0,1,2.54-14.56,23.158,23.158,0,0,1,4.55-8.43,11.32,11.32,0,0,1,8.48-3.95c4,.14,7.6,2.91,11.56,2.57,3-.25,5.66-2.29,8.67-2.7a10.75,10.75,0,0,1,7.47,2.11,25.621,25.621,0,0,1,5.49,5.7c5.45,7.2,9.88,15.62,10.14,24.65,1.14.82,2.77-.26,3.33-1.54s.58-2.78,1.28-4c.82-1.41,2.4-2.17,3.63-3.23,3.12-2.69,3.9-7.22,3.78-11.33v-.38C926.1,316.17,925.15,319.8,922.49,322.09Z" transform="translate(-838.155 -289.26)"/>
        <path id="Path_406" data-name="Path 406" d="M848.66,321.39c-2.29-2.53-5.43-4.23-7.54-6.91a14.51,14.51,0,0,1-2.91-8.18,15.41,15.41,0,0,0,2.91,10.39c2.11,2.68,5.25,4.37,7.54,6.9a15,15,0,0,1,3.78,8.92,15,15,0,0,0-3.78-11.12Z" transform="translate(-838.155 -289.26)"/>
        <path id="Path_407" data-name="Path 407" d="M928.24,291.19c-.59,2.45-1.64,4.78-2.12,7.25a23.153,23.153,0,0,0-.31,5.06,19.418,19.418,0,0,1,.31-2.85c.48-2.47,1.53-4.8,2.12-7.25a12.56,12.56,0,0,0,.33-4.14,13.888,13.888,0,0,1-.33,1.93Z" transform="translate(-838.155 -289.26)"/>
      </g>
      <ellipse id="Ellipse_19" data-name="Ellipse 19" cx="97.44" cy="15.65" rx="97.44" ry="15.65" transform="translate(20.143 807.58)" fill="#6c63ff" opacity="0.1"/>
      <rect id="Rectangle_202" data-name="Rectangle 202" width="6.27" height="141.17" transform="translate(110.775 523.42)" fill="#535461"/>
      <path id="Path_408" data-name="Path 408" d="M191.23,682.73l-.4,6.36-.55,9-.23,3.74-.56,9-.24,3.74-.55,9-6.33,102.07a17.28,17.28,0,0,1-17.25,16.22H132.25A17.27,17.27,0,0,1,115,825.57L108.67,723.5l-.55-9-.23-3.74-.57-9-.23-3.74-.55-9-.4-6.36a9,9,0,0,1,8.94-9.51H182.3a9,9,0,0,1,8.93,9.58Z" transform="translate(-33.429 -18.56)" fill="#3f3d56"/>
      <path id="Path_409" data-name="Path 409" d="M174.88,670.52l-.56,8.98H91.14l-.56-8.98Z" transform="translate(-17.494)" fill="#9d9cb5"/>
      <path id="Path_410" data-name="Path 410" d="M174.09,683.24l-.55,8.98H91.93l-.56-8.98Z" transform="translate(-17.523)" fill="#9d9cb5"/>
      <path id="Path_411" data-name="Path 411" d="M173.3,695.97l-.55,8.97H92.72l-.56-8.97Z" transform="translate(-17.552)" fill="#9d9cb5"/>
      <path id="Path_412" data-name="Path 412" d="M97,594.9c36.52,26.42,51.73,67.74,51.73,67.74s-44-1.51-80.53-27.93S16.44,567,16.44,567,60.44,568.48,97,594.9Z" transform="translate(-15.95 -18.56)" fill="#2cd889"/>
      <path id="Path_413" data-name="Path 413" d="M16.44,567s45.67,25.35,60.32,46.34,71.93,49.32,71.93,49.32" transform="translate(-15.95 -18.56)" fill="none" stroke="#535461" stroke-miterlimit="10" stroke-width="2"/>
      <path id="Path_414" data-name="Path 414" d="M120.53,541.68c19.88,14.37,28.16,36.86,28.16,36.86s-24-.82-43.83-15.19S76.7,526.48,76.7,526.48,100.66,527.3,120.53,541.68Z" transform="translate(-30.943 -18.56)" fill="#2cd889"/>
      <path id="Path_415" data-name="Path 415" d="M76.7,526.48s24.86,13.8,32.84,25.22,39.15,26.84,39.15,26.84" transform="translate(-30.943 -18.56)" fill="none" stroke="#535461" stroke-miterlimit="10" stroke-width="2"/>
      <path id="Path_416" data-name="Path 416" d="M177.57,577.4c-22.83,25.09-27.66,57.88-27.66,57.88s32.19-7.9,55-33,27.66-57.88,27.66-57.88S200.4,552.31,177.57,577.4Z" transform="translate(-36.738 -18.56)" fill="#2cd889"/>
      <path id="Path_417" data-name="Path 417" d="M232.59,544.41s-29.74,25.72-37.3,43.44-45.38,47.43-45.38,47.43" transform="translate(-36.738 -18.56)" fill="none" stroke="#535461" stroke-miterlimit="10" stroke-width="2"/>
    </g>
  </g>
</svg>
