<svg id="btnEdit" xmlns="http://www.w3.org/2000/svg" width="20.128" height="20.128" viewBox="0 0 20.128 20.128">
  <path id="Path_418" data-name="Path 418" d="M11.629,16.3a1.147,1.147,0,0,1-.849-.37,1.069,1.069,0,0,1-.273-.861l.422-3.176a1.093,1.093,0,0,1,.316-.634l8.18-7.9a3.225,3.225,0,0,1,3.1-.9,3.106,3.106,0,0,1,2.287,2.212,2.989,2.989,0,0,1-.927,3l-8.172,7.911a1.161,1.161,0,0,1-.655.306l-3.284.408Zm3.284-1.493Zm-1.778-2.265-.188,1.406,1.439-.2,7.9-7.626a.84.84,0,0,0,0-1.224.934.934,0,0,0-1.265,0Z" transform="translate(-4.779 -2.372)" fill="#2cd889"/>
  <path id="Path_419" data-name="Path 419" d="M16.9,9.736a.956.956,0,0,1-.682-.271L13.752,6.929a1.012,1.012,0,0,1-.277-.972.979.979,0,0,1,.7-.716.947.947,0,0,1,.944.285l2.495,2.516a1.015,1.015,0,0,1,.209,1.082.965.965,0,0,1-.89.613Zm.714,11.313H3.464a.979.979,0,0,1-.964-.993V5.493A.979.979,0,0,1,3.464,4.5h7.072a.993.993,0,0,1,0,1.986H4.429V19.064H16.645V12.775a.965.965,0,1,1,1.929,0v7.282a.979.979,0,0,1-.964.993Z" transform="translate(-2.5 -0.921)" fill="#2cd889"/>
</svg>
