<svg xmlns="http://www.w3.org/2000/svg" width="178.952" height="92.012" viewBox="0 0 178.952 92.012">
  <g id="indentityCard_Img" transform="translate(-28 41.974)">
    <path id="Path_460" data-name="Path 460" d="M2,2H164.15V63.827H2Z" transform="translate(37.4 -37.561)" fill="#2cd889"/>
    <path id="Path_461" data-name="Path 461" d="M53.3,50.038l.041-.076h-.117Z" fill="#e64b3f"/>
    <path id="Path_462" data-name="Path 462" d="M53.3,50.038l.041-.076h-.117Z" fill="#e64b3f"/>
    <path id="Path_463" data-name="Path 463" d="M188.991,51.8c-42.132,0-70.629.24-100.463,0-8.354-.067-16.552.835-25.8,0-4.386-.4-10.21-.012-15.5,0-2.508,0-4.308-1.3-7.265,0C31.729,51.8,25,56.032,25,61.213v59.664c0,5.18,6.729,9.415,14.96,9.415H188.991c8.268,0,14.96-4.234,14.96-9.415V61.213C203.952,56.032,197.259,51.8,188.991,51.8ZM75.643,64.3c8.948,0,16.213,4.572,16.213,10.2S84.591,84.727,75.643,84.727,59.394,80.132,59.394,74.5,66.7,64.3,75.643,64.3Zm28.382,51.24c0,1.239-1.611,2.252-3.579,2.252H50.8c-1.968,0-3.579-1.014-3.579-2.252V97.993c0-5.383,6.979-9.753,15.5-9.753h5.762a4.1,4.1,0,0,1,3.185,1.239l3.973,5,3.973-5A4.157,4.157,0,0,1,82.8,88.24h5.726c8.554,0,15.5,4.369,15.5,9.753Zm74.115.378h-54.58c-1.977,0-3.579-1.008-3.579-2.252s1.6-2.252,3.579-2.252h54.58c1.977,0,3.579,1.008,3.579,2.252S180.116,115.917,178.14,115.917Zm0-12.388h-54.58c-1.977,0-3.579-1.008-3.579-2.252s1.6-2.252,3.579-2.252h54.58c1.977,0,3.579,1.008,3.579,2.252S180.116,103.529,178.14,103.529Zm0-12.388h-54.58c-1.977,0-3.579-1.008-3.579-2.252s1.6-2.252,3.579-2.252h54.58c1.977,0,3.579,1.008,3.579,2.252S180.116,91.141,178.14,91.141Zm0-12.388H149.507c-1.977,0-3.579-1.008-3.579-2.252s1.6-2.252,3.579-2.252H178.14c1.977,0,3.579,1.008,3.579,2.252S180.116,78.754,178.14,78.754Z" transform="translate(3 -93.197)" fill="#fff"/>
  </g>
</svg>
