<svg xmlns="http://www.w3.org/2000/svg" width="19.283" height="18.362" viewBox="0 0 19.283 18.362">
  <g id="moneyBag_img" transform="translate(-2.966 -0.831)">
    <path id="Path_464" data-name="Path 464" d="M15.735,6.031H9.208L8.255,4.225,7.341,2.493a.492.492,0,0,1,.145-.671.873.873,0,0,1,.851-.091l1.006.436a1.742,1.742,0,0,0,1.72-.2l.383-.3a1.729,1.729,0,0,1,2.051,0l.383.3a1.742,1.742,0,0,0,1.72.2l1.006-.436a.873.873,0,0,1,.851.091.492.492,0,0,1,.145.671ZM17,18.692H7.845a4.286,4.286,0,0,1-4.222-2.616l-.011-.034A6.545,6.545,0,0,1,6.3,8.779l2.14-1.6h8.7l1.924,1.629a6.447,6.447,0,0,1,2.269,6.931l-.105.334A4.286,4.286,0,0,1,17,18.692Z" transform="translate(0 0)" fill="#f8a839"/>
    <ellipse id="Ellipse_27" data-name="Ellipse 27" cx="4.947" cy="4.469" rx="4.947" ry="4.469" transform="translate(7.528 5.755)" fill="#fedc55"/>
    <rect id="Rectangle_1145" data-name="Rectangle 1145" width="8.292" height="2.289" rx="1.074" transform="translate(8.41 5.575)" fill="#e1762e"/>
    <path id="Path_465" data-name="Path 465" d="M12.555,9.178c-2.641,0-4.782,1.714-4.782,3.829s2.141,3.829,4.782,3.829,4.782-1.714,4.782-3.829S15.2,9.18,12.555,9.178Zm0,7.069c-2.235,0-4.046-1.451-4.046-3.24s1.812-3.24,4.046-3.24,4.046,1.451,4.046,3.24S14.789,16.245,12.555,16.247Zm7-7.665L17.626,6.933a.739.739,0,0,0,.128-.4,1.012,1.012,0,0,0-1.1-.884h-.183l1.67-3.2a.76.76,0,0,0-.221-1.031,1.318,1.318,0,0,0-1.3-.14l-1.02.445a1.322,1.322,0,0,1-1.309-.151L13.9,1.262a2.176,2.176,0,0,0-2.6,0l-.388.311a1.325,1.325,0,0,1-1.309.151L8.582,1.277A1.32,1.32,0,0,0,7.3,1.412.762.762,0,0,0,7.059,2.43L8.74,5.643H8.557a1.115,1.115,0,0,0-1.04.582.776.776,0,0,0,.338.979L6.09,8.537a7,7,0,0,0-2.82,7.755,4.7,4.7,0,0,0,4.639,2.9H17.2a4.7,4.7,0,0,0,4.639-2.9l.107-.342a6.863,6.863,0,0,0-2.39-7.368ZM7.727,2.184A.253.253,0,0,1,7.8,1.84a.439.439,0,0,1,.432-.046l1.02.445a2.207,2.207,0,0,0,2.181-.248l.385-.313a1.306,1.306,0,0,1,1.561,0l.388.311a2.207,2.207,0,0,0,2.181.252l1.02-.446a.425.425,0,0,1,.432.047.253.253,0,0,1,.063.362l-1.8,3.441H9.539Zm.829,4.048H16.65a.337.337,0,0,1,.368.295.337.337,0,0,1-.368.295H8.557a.337.337,0,0,1-.368-.295.337.337,0,0,1,.368-.295Zm12.68,9.575-.107.342A3.978,3.978,0,0,1,17.2,18.6H7.909a3.979,3.979,0,0,1-3.937-2.49A6.477,6.477,0,0,1,6.592,8.966L8.656,7.41h8.522l1.844,1.574A6.355,6.355,0,0,1,21.237,15.807Zm-9.049-4.273h.736a.675.675,0,0,1,.736.589.377.377,0,0,0,.736,0,1.35,1.35,0,0,0-1.471-1.178v-.295a.377.377,0,0,0-.736,0v.295a1.35,1.35,0,0,0-1.471,1.178A1.35,1.35,0,0,0,12.187,13.3h.736a.675.675,0,0,1,.736.589.675.675,0,0,1-.736.589h-.736a.675.675,0,0,1-.736-.589.377.377,0,0,0-.736,0,1.35,1.35,0,0,0,1.471,1.178v.295a.377.377,0,0,0,.736,0v-.295a1.35,1.35,0,0,0,1.471-1.178,1.35,1.35,0,0,0-1.471-1.178h-.736a.675.675,0,0,1-.736-.589A.675.675,0,0,1,12.187,11.534Z" transform="translate(0 0)" fill="rgba(0,0,0,0.82)"/>
  </g>
</svg>
