<svg xmlns="http://www.w3.org/2000/svg" width="24.617" height="25.504" viewBox="0 0 24.617 25.504">
  <path id="password_icon" d="M22.541,6.422c0-2.732-2.772-5.039-6.474-5.383S8.89,2.42,7.959,5.066s.972,5.386,4.44,6.394v7.915a.183.183,0,0,0,.082.145l3.051,2.234a.358.358,0,0,0,.4,0L18.873,19.6a.169.169,0,0,0,.008-.285L16.719,17.6a.176.176,0,0,1-.074-.152.194.194,0,0,1,.1-.144l2.116-1.313a.17.17,0,0,0,.042-.282l-2.324-2.229a.173.173,0,0,1-.058-.125V11.747c3.492-.487,6.019-2.722,6.02-5.325Zm-7.408,0c-1.227,0-2.222-.728-2.222-1.627s1-1.627,2.222-1.627S17.355,3.9,17.355,4.8s-.995,1.627-2.222,1.627Z" transform="translate(-6.629 13.412) rotate(-39)" fill="#3fc1c9"/>
</svg>
